<svg style="enable-background:new 0 0 512 512; fill: #b3babf;" height="512" viewBox="0 0 512 512" width="512" xmlns="http://www.w3.org/2000/svg"><g><path d="m422.333 264.5v-32.756c0-18.331-14.913-33.244-33.244-33.244h-90.423c-12.763 0-27.666 8.706-27.666 33.244v32.756z"/><path d="m241.001 231.744c0-18.331-14.914-33.244-33.245-33.244h-84.845c-18.331 0-33.244 14.913-33.244 33.244v32.756h151.333v-32.756z"/><path d="m59.667 264.5v-32.756c0-34.873 28.371-63.244 63.244-63.244h84.845c18.621 0 35.385 8.094 46.969 20.943 10.325-13.067 25.773-20.943 43.941-20.943h90.423c34.873 0 63.244 28.371 63.244 63.244v32.756h26.667v-119.181c0-46.034-37.451-83.485-83.485-83.485h-279.03c-46.034-.001-83.485 37.45-83.485 83.485v119.181z"/><path d="m0 294.5v117.333h38.333v38.334h30.001v-38.334h375.333v38.334h30v-38.334h38.333v-117.333z"/></g></svg>